<svg width="800" height="420" viewBox="0 0 800 420" xmlns="http://www.w3.org/2000/svg" font-family="'Hiragino Sans','Noto Sans JP',sans-serif">
  <rect width="800" height="420" fill="#111111"/>
  <text x="400" y="38" text-anchor="middle" fill="#c9a84c" font-size="18" font-weight="bold">フェーズ別おすすめ施策マトリクス</text>
  <!-- Headers -->
  <rect x="40" y="60" width="140" height="44" rx="6" fill="#1e1e1e" stroke="#c9a84c" stroke-width="1"/>
  <text x="110" y="87" text-anchor="middle" fill="#c9a84c" font-size="13" font-weight="bold">フェーズ</text>
  <rect x="190" y="60" width="180" height="44" rx="6" fill="#1e1e1e" stroke="#c9a84c" stroke-width="1"/>
  <text x="280" y="87" text-anchor="middle" fill="#c9a84c" font-size="13" font-weight="bold">SNS優先度</text>
  <rect x="380" y="60" width="180" height="44" rx="6" fill="#1e1e1e" stroke="#c9a84c" stroke-width="1"/>
  <text x="470" y="87" text-anchor="middle" fill="#c9a84c" font-size="13" font-weight="bold">HP優先度</text>
  <rect x="570" y="60" width="190" height="44" rx="6" fill="#1e1e1e" stroke="#c9a84c" stroke-width="1"/>
  <text x="665" y="87" text-anchor="middle" fill="#c9a84c" font-size="13" font-weight="bold">推奨施策</text>
  <!-- Row 1 -->
  <rect x="40" y="114" width="140" height="70" rx="6" fill="#1a2a1a" stroke="#333" stroke-width="1"/>
  <text x="110" y="143" text-anchor="middle" fill="#ffffff" font-size="12" font-weight="bold">認知フェーズ</text>
  <text x="110" y="160" text-anchor="middle" fill="#aaaaaa" font-size="11">創業〜6ヶ月</text>
  <rect x="190" y="114" width="180" height="70" rx="6" fill="#1a2a1a" stroke="#333" stroke-width="1"/>
  <text x="280" y="148" text-anchor="middle" fill="#c9a84c" font-size="22" font-weight="bold">★★★</text>
  <text x="280" y="170" text-anchor="middle" fill="#aaaaaa" font-size="11">最優先</text>
  <rect x="380" y="114" width="180" height="70" rx="6" fill="#1e1e1e" stroke="#333" stroke-width="1"/>
  <text x="470" y="148" text-anchor="middle" fill="#555555" font-size="22">★☆☆</text>
  <text x="470" y="170" text-anchor="middle" fill="#aaaaaa" font-size="11">最低限のみ</text>
  <rect x="570" y="114" width="190" height="70" rx="6" fill="#1e1e1e" stroke="#333" stroke-width="1"/>
  <text x="665" y="143" text-anchor="middle" fill="#ffffff" font-size="11">Instagram/X開設</text>
  <text x="665" y="160" text-anchor="middle" fill="#ffffff" font-size="11">簡易LP作成</text>
  <!-- Row 2 -->
  <rect x="40" y="194" width="140" height="70" rx="6" fill="#1a1a2a" stroke="#333" stroke-width="1"/>
  <text x="110" y="223" text-anchor="middle" fill="#ffffff" font-size="12" font-weight="bold">集客フェーズ</text>
  <text x="110" y="240" text-anchor="middle" fill="#aaaaaa" font-size="11">6ヶ月〜1年</text>
  <rect x="190" y="194" width="180" height="70" rx="6" fill="#1a1a2a" stroke="#333" stroke-width="1"/>
  <text x="280" y="228" text-anchor="middle" fill="#c9a84c" font-size="22" font-weight="bold">★★☆</text>
  <text x="280" y="250" text-anchor="middle" fill="#aaaaaa" font-size="11">継続運用</text>
  <rect x="380" y="194" width="180" height="70" rx="6" fill="#1a2a1a" stroke="#333" stroke-width="1"/>
  <text x="470" y="228" text-anchor="middle" fill="#c9a84c" font-size="22" font-weight="bold">★★☆</text>
  <text x="470" y="250" text-anchor="middle" fill="#aaaaaa" font-size="11">本格整備開始</text>
  <rect x="570" y="194" width="190" height="70" rx="6" fill="#1e1e1e" stroke="#333" stroke-width="1"/>
  <text x="665" y="223" text-anchor="middle" fill="#ffffff" font-size="11">実績ページ追加</text>
  <text x="665" y="240" text-anchor="middle" fill="#ffffff" font-size="11">SNS→HP誘導強化</text>
  <!-- Row 3 -->
  <rect x="40" y="274" width="140" height="70" rx="6" fill="#2a1a1a" stroke="#333" stroke-width="1"/>
  <text x="110" y="303" text-anchor="middle" fill="#ffffff" font-size="12" font-weight="bold">転換フェーズ</text>
  <text x="110" y="320" text-anchor="middle" fill="#aaaaaa" font-size="11">1年〜</text>
  <rect x="190" y="274" width="180" height="70" rx="6" fill="#1e1e1e" stroke="#333" stroke-width="1"/>
  <text x="280" y="308" text-anchor="middle" fill="#c9a84c" font-size="22" font-weight="bold">★★☆</text>
  <text x="280" y="330" text-anchor="middle" fill="#aaaaaa" font-size="11">広告連携</text>
  <rect x="380" y="274" width="180" height="70" rx="6" fill="#1a2a1a" stroke="#333" stroke-width="1"/>
  <text x="470" y="308" text-anchor="middle" fill="#c9a84c" font-size="22" font-weight="bold">★★★</text>
  <text x="470" y="330" text-anchor="middle" fill="#aaaaaa" font-size="11">CVR最適化</text>
  <rect x="570" y="274" width="190" height="70" rx="6" fill="#1e1e1e" stroke="#333" stroke-width="1"/>
  <text x="665" y="303" text-anchor="middle" fill="#ffffff" font-size="11">広告投下開始</text>
  <text x="665" y="320" text-anchor="middle" fill="#ffffff" font-size="11">SEOコンテンツ強化</text>
  <!-- Legend -->
  <text x="400" y="380" text-anchor="middle" fill="#aaaaaa" font-size="12">★★★ = 最優先　★★☆ = 重要　★☆☆ = 最低限</text>
</svg>