<svg width="800" height="420" viewBox="0 0 800 420" xmlns="http://www.w3.org/2000/svg" font-family="'Hiragino Sans','Noto Sans JP',sans-serif">
  <rect fill="#111111" width="800" height="420"/>
  <text x="400" y="36" text-anchor="middle" fill="#c9a84c" font-size="18" font-weight="bold">制作会社最終評価スコアカード（10項目×10点満点）</text>

  <!-- left col: items 1-5 -->
  <rect x="20" y="56" width="370" height="34" rx="4" fill="rgba(201,168,76,0.12)"/>
  <text x="200" y="74" text-anchor="middle" fill="#c9a84c" font-size="12" font-weight="bold">評価項目</text>
  <text x="340" y="74" text-anchor="middle" fill="#c9a84c" font-size="12" font-weight="bold">点数</text>

  <!-- items left -->
  <rect x="20" y="94" width="370" height="30" rx="3" fill="rgba(255,255,255,0.02)" stroke="rgba(255,255,255,0.06)" stroke-width="1"/>
  <text x="30" y="114" fill="rgba(255,255,255,0.75)" font-size="12">① 同業種の制作実績がある</text>
  <rect x="310" y="99" width="70" height="20" rx="3" fill="rgba(201,168,76,0.15)" stroke="rgba(201,168,76,0.3)" stroke-width="1"/>
  <text x="345" y="113" text-anchor="middle" fill="#c9a84c" font-size="11">___/10点</text>

  <rect x="20" y="128" width="370" height="30" rx="3" fill="rgba(255,255,255,0.03)" stroke="rgba(255,255,255,0.06)" stroke-width="1"/>
  <text x="30" y="148" fill="rgba(255,255,255,0.75)" font-size="12">② SEO知識・実績がある</text>
  <rect x="310" y="133" width="70" height="20" rx="3" fill="rgba(201,168,76,0.15)" stroke="rgba(201,168,76,0.3)" stroke-width="1"/>
  <text x="345" y="147" text-anchor="middle" fill="#c9a84c" font-size="11">___/10点</text>

  <rect x="20" y="162" width="370" height="30" rx="3" fill="rgba(255,255,255,0.02)" stroke="rgba(255,255,255,0.06)" stroke-width="1"/>
  <text x="30" y="182" fill="rgba(255,255,255,0.75)" font-size="12">③ 公開後のサポート体制が明確</text>
  <rect x="310" y="167" width="70" height="20" rx="3" fill="rgba(201,168,76,0.15)" stroke="rgba(201,168,76,0.3)" stroke-width="1"/>
  <text x="345" y="181" text-anchor="middle" fill="#c9a84c" font-size="11">___/10点</text>

  <rect x="20" y="196" width="370" height="30" rx="3" fill="rgba(255,255,255,0.03)" stroke="rgba(255,255,255,0.06)" stroke-width="1"/>
  <text x="30" y="216" fill="rgba(255,255,255,0.75)" font-size="12">④ コンテンツ制作の対応範囲が明確</text>
  <rect x="310" y="201" width="70" height="20" rx="3" fill="rgba(201,168,76,0.15)" stroke="rgba(201,168,76,0.3)" stroke-width="1"/>
  <text x="345" y="215" text-anchor="middle" fill="#c9a84c" font-size="11">___/10点</text>

  <rect x="20" y="230" width="370" height="30" rx="3" fill="rgba(255,255,255,0.02)" stroke="rgba(255,255,255,0.06)" stroke-width="1"/>
  <text x="30" y="250" fill="rgba(255,255,255,0.75)" font-size="12">⑤ 担当者のレスポンスが早い</text>
  <rect x="310" y="235" width="70" height="20" rx="3" fill="rgba(201,168,76,0.15)" stroke="rgba(201,168,76,0.3)" stroke-width="1"/>
  <text x="345" y="249" text-anchor="middle" fill="#c9a84c" font-size="11">___/10点</text>

  <!-- right col: items 6-10 -->
  <rect x="410" y="56" width="370" height="34" rx="4" fill="rgba(201,168,76,0.12)"/>
  <text x="590" y="74" text-anchor="middle" fill="#c9a84c" font-size="12" font-weight="bold">評価項目</text>
  <text x="730" y="74" text-anchor="middle" fill="#c9a84c" font-size="12" font-weight="bold">点数</text>

  <rect x="410" y="94" width="370" height="30" rx="3" fill="rgba(255,255,255,0.02)" stroke="rgba(255,255,255,0.06)" stroke-width="1"/>
  <text x="420" y="114" fill="rgba(255,255,255,0.75)" font-size="12">⑥ 費用の内訳が明確</text>
  <rect x="700" y="99" width="70" height="20" rx="3" fill="rgba(201,168,76,0.15)" stroke="rgba(201,168,76,0.3)" stroke-width="1"/>
  <text x="735" y="113" text-anchor="middle" fill="#c9a84c" font-size="11">___/10点</text>

  <rect x="410" y="128" width="370" height="30" rx="3" fill="rgba(255,255,255,0.03)" stroke="rgba(255,255,255,0.06)" stroke-width="1"/>
  <text x="420" y="148" fill="rgba(255,255,255,0.75)" font-size="12">⑦ 目的への具体的な提案がある</text>
  <rect x="700" y="133" width="70" height="20" rx="3" fill="rgba(201,168,76,0.15)" stroke="rgba(201,168,76,0.3)" stroke-width="1"/>
  <text x="735" y="147" text-anchor="middle" fill="#c9a84c" font-size="11">___/10点</text>

  <rect x="410" y="162" width="370" height="30" rx="3" fill="rgba(255,255,255,0.02)" stroke="rgba(255,255,255,0.06)" stroke-width="1"/>
  <text x="420" y="182" fill="rgba(255,255,255,0.75)" font-size="12">⑧ CMS（更新画面）が提供される</text>
  <rect x="700" y="167" width="70" height="20" rx="3" fill="rgba(201,168,76,0.15)" stroke="rgba(201,168,76,0.3)" stroke-width="1"/>
  <text x="735" y="181" text-anchor="middle" fill="#c9a84c" font-size="11">___/10点</text>

  <rect x="410" y="196" width="370" height="30" rx="3" fill="rgba(255,255,255,0.03)" stroke="rgba(255,255,255,0.06)" stroke-width="1"/>
  <text x="420" y="216" fill="rgba(255,255,255,0.75)" font-size="12">⑨ 著作権・データ納品が明確</text>
  <rect x="700" y="201" width="70" height="20" rx="3" fill="rgba(201,168,76,0.15)" stroke="rgba(201,168,76,0.3)" stroke-width="1"/>
  <text x="735" y="215" text-anchor="middle" fill="#c9a84c" font-size="11">___/10点</text>

  <rect x="410" y="230" width="370" height="30" rx="3" fill="rgba(255,255,255,0.02)" stroke="rgba(255,255,255,0.06)" stroke-width="1"/>
  <text x="420" y="250" fill="rgba(255,255,255,0.75)" font-size="12">⑩ 担当者のスキル・実績を確認済み</text>
  <rect x="700" y="235" width="70" height="20" rx="3" fill="rgba(201,168,76,0.15)" stroke="rgba(201,168,76,0.3)" stroke-width="1"/>
  <text x="735" y="249" text-anchor="middle" fill="#c9a84c" font-size="11">___/10点</text>

  <!-- result box -->
  <rect x="20" y="276" width="760" height="70" rx="8" fill="rgba(201,168,76,0.08)" stroke="#c9a84c" stroke-width="1.5"/>
  <text x="400" y="300" text-anchor="middle" fill="rgba(255,255,255,0.7)" font-size="12">合計スコアの判定（満点100点）</text>
  <text x="160" y="330" text-anchor="middle" fill="rgba(255,100,100,0.8)" font-size="13" font-weight="bold">〜59点：発注を見送る</text>
  <text x="400" y="330" text-anchor="middle" fill="rgba(255,200,0,0.8)" font-size="13" font-weight="bold">60〜79点：追加確認してから判断</text>
  <text x="640" y="330" text-anchor="middle" fill="#c9a84c" font-size="13" font-weight="bold">80点以上：発注推奨 ✓</text>

  <text x="400" y="368" text-anchor="middle" fill="rgba(255,255,255,0.5)" font-size="12">合計：_______ / 100点</text>
  <text x="400" y="390" text-anchor="middle" fill="rgba(255,255,255,0.35)" font-size="11">3〜5社を同じ基準で採点することで客観的な比較が可能になります</text>
  <text x="400" y="408" text-anchor="middle" fill="rgba(255,255,255,0.25)" font-size="10">※このスコアカードを印刷して打ち合わせ時に活用してください</text>
</svg>
